solid OpenSCAD_Model
  facet normal 0.976645 0 -0.214862
    outer loop
      vertex 3.27 3.27 8.5
      vertex 3.05 15.7275 7.5
      vertex 3.27 15.5075 8.5
    endloop
  endfacet
  facet normal 0.976645 0 -0.214862
    outer loop
      vertex 3.05 15.7275 7.5
      vertex 3.27 3.27 8.5
      vertex 3.05 3.05 7.5
    endloop
  endfacet
  facet normal 0 0 -1
    outer loop
      vertex 2.5 16.2775 7.5
      vertex 3.05 15.7275 7.5
      vertex 3.05 3.05 7.5
    endloop
  endfacet
  facet normal 0 0 -1
    outer loop
      vertex 2.5 16.2775 7.5
      vertex 3.05 3.05 7.5
      vertex 2.5 2.5 7.5
    endloop
  endfacet
  facet normal 1 -0 0
    outer loop
      vertex 3.27 3.27 9
      vertex 3.27 15.5075 8.5
      vertex 3.27 15.5075 9
    endloop
  endfacet
  facet normal 1 0 0
    outer loop
      vertex 3.27 15.5075 8.5
      vertex 3.27 3.27 9
      vertex 3.27 3.27 8.5
    endloop
  endfacet
  facet normal 0 0 1
    outer loop
      vertex 3.27 3.27 9
      vertex 2.7651 2.7651 9
      vertex 3.27 2.7651 9
    endloop
  endfacet
  facet normal -0 0 1
    outer loop
      vertex 2.7651 15.5075 9
      vertex 3.27 3.27 9
      vertex 3.27 15.5075 9
    endloop
  endfacet
  facet normal 0 0 1
    outer loop
      vertex 3.27 3.27 9
      vertex 2.7651 15.5075 9
      vertex 2.7651 3.27 9
    endloop
  endfacet
  facet normal 0 0 1
    outer loop
      vertex 3.27 16.0124 9
      vertex 2.7651 16.0124 9
      vertex 3.27 15.5075 9
    endloop
  endfacet
  facet normal 1 0 0
    outer loop
      vertex 2.7651 16.0124 10
      vertex 2.7651 15.5075 9
      vertex 2.7651 16.0124 9
    endloop
  endfacet
  facet normal 1 0 0
    outer loop
      vertex 2.7651 16.0124 10
      vertex 2.7651 3.27 9
      vertex 2.7651 15.5075 9
    endloop
  endfacet
  facet normal 1 -0 0
    outer loop
      vertex 2.7651 2.7651 10
      vertex 2.7651 3.27 9
      vertex 2.7651 16.0124 10
    endloop
  endfacet
  facet normal 1 0 0
    outer loop
      vertex 2.7651 3.27 9
      vertex 2.7651 2.7651 10
      vertex 2.7651 2.7651 9
    endloop
  endfacet
  facet normal -0.976645 0 -0.214861
    outer loop
      vertex 15.7275 15.7275 7.5
      vertex 15.5075 3.27 8.5
      vertex 15.5075 15.5075 8.5
    endloop
  endfacet
  facet normal -0.976645 0 -0.214861
    outer loop
      vertex 15.5075 3.27 8.5
      vertex 15.7275 15.7275 7.5
      vertex 15.7275 3.05 7.5
    endloop
  endfacet
  facet normal 0 0 -1
    outer loop
      vertex 15.7275 3.05 7.5
      vertex 16.2775 16.2775 7.5
      vertex 16.2775 2.5 7.5
    endloop
  endfacet
  facet normal 0 0 -1
    outer loop
      vertex 16.2775 16.2775 7.5
      vertex 15.7275 3.05 7.5
      vertex 15.7275 15.7275 7.5
    endloop
  endfacet
  facet normal -1 0 0
    outer loop
      vertex 15.5075 3.27 8.5
      vertex 15.5075 15.5075 9
      vertex 15.5075 15.5075 8.5
    endloop
  endfacet
  facet normal -1 -0 0
    outer loop
      vertex 15.5075 15.5075 9
      vertex 15.5075 3.27 8.5
      vertex 15.5075 3.27 9
    endloop
  endfacet
  facet normal 0 0 1
    outer loop
      vertex 15.5075 3.27 9
      vertex 15.5075 2.7651 9
      vertex 16.0124 2.7651 9
    endloop
  endfacet
  facet normal -0 0 1
    outer loop
      vertex 15.5075 15.5075 9
      vertex 16.0124 3.27 9
      vertex 16.0124 15.5075 9
    endloop
  endfacet
  facet normal 0 0 1
    outer loop
      vertex 16.0124 3.27 9
      vertex 15.5075 15.5075 9
      vertex 15.5075 3.27 9
    endloop
  endfacet
  facet normal -0 0 1
    outer loop
      vertex 15.5075 16.0124 9
      vertex 15.5075 15.5075 9
      vertex 16.0124 16.0124 9
    endloop
  endfacet
  facet normal -1 0 0
    outer loop
      vertex 16.0124 15.5075 9
      vertex 16.0124 16.0124 10
      vertex 16.0124 16.0124 9
    endloop
  endfacet
  facet normal -1 0 0
    outer loop
      vertex 16.0124 3.27 9
      vertex 16.0124 16.0124 10
      vertex 16.0124 15.5075 9
    endloop
  endfacet
  facet normal -1 0 0
    outer loop
      vertex 16.0124 2.7651 10
      vertex 16.0124 3.27 9
      vertex 16.0124 2.7651 9
    endloop
  endfacet
  facet normal -1 0 0
    outer loop
      vertex 16.0124 3.27 9
      vertex 16.0124 2.7651 10
      vertex 16.0124 16.0124 10
    endloop
  endfacet
  facet normal 0 0.976645 -0.214862
    outer loop
      vertex 15.7275 3.05 7.5
      vertex 3.27 3.27 8.5
      vertex 15.5075 3.27 8.5
    endloop
  endfacet
  facet normal 0 0.976645 -0.214862
    outer loop
      vertex 3.27 3.27 8.5
      vertex 15.7275 3.05 7.5
      vertex 3.05 3.05 7.5
    endloop
  endfacet
  facet normal 0 0 -1
    outer loop
      vertex 16.2775 2.5 7.5
      vertex 3.05 3.05 7.5
      vertex 15.7275 3.05 7.5
    endloop
  endfacet
  facet normal 0 -0 -1
    outer loop
      vertex 3.05 3.05 7.5
      vertex 16.2775 2.5 7.5
      vertex 2.5 2.5 7.5
    endloop
  endfacet
  facet normal 0 1 -0
    outer loop
      vertex 15.5075 3.27 8.5
      vertex 3.27 3.27 9
      vertex 15.5075 3.27 9
    endloop
  endfacet
  facet normal 0 1 0
    outer loop
      vertex 3.27 3.27 9
      vertex 15.5075 3.27 8.5
      vertex 3.27 3.27 8.5
    endloop
  endfacet
  facet normal -0 0 1
    outer loop
      vertex 2.7651 3.27 9
      vertex 2.7651 2.7651 9
      vertex 3.27 3.27 9
    endloop
  endfacet
  facet normal 0 0 1
    outer loop
      vertex 16.0124 3.27 9
      vertex 15.5075 3.27 9
      vertex 16.0124 2.7651 9
    endloop
  endfacet
  facet normal -0 0 1
    outer loop
      vertex 3.27 3.27 9
      vertex 15.5075 2.7651 9
      vertex 15.5075 3.27 9
    endloop
  endfacet
  facet normal 0 0 1
    outer loop
      vertex 15.5075 2.7651 9
      vertex 3.27 3.27 9
      vertex 3.27 2.7651 9
    endloop
  endfacet
  facet normal 0 1 0
    outer loop
      vertex 15.5075 2.7651 9
      vertex 16.0124 2.7651 10
      vertex 16.0124 2.7651 9
    endloop
  endfacet
  facet normal 0 1 0
    outer loop
      vertex 16.0124 2.7651 10
      vertex 15.5075 2.7651 9
      vertex 2.7651 2.7651 10
    endloop
  endfacet
  facet normal 0 1 -0
    outer loop
      vertex 3.27 2.7651 9
      vertex 2.7651 2.7651 10
      vertex 15.5075 2.7651 9
    endloop
  endfacet
  facet normal 0 1 0
    outer loop
      vertex 2.7651 2.7651 10
      vertex 3.27 2.7651 9
      vertex 2.7651 2.7651 9
    endloop
  endfacet
  facet normal 0 -0.976645 -0.214861
    outer loop
      vertex 3.05 15.7275 7.5
      vertex 15.5075 15.5075 8.5
      vertex 3.27 15.5075 8.5
    endloop
  endfacet
  facet normal 0 -0.976645 -0.214861
    outer loop
      vertex 15.5075 15.5075 8.5
      vertex 3.05 15.7275 7.5
      vertex 15.7275 15.7275 7.5
    endloop
  endfacet
  facet normal 1 -0 0
    outer loop
      vertex 2.5 2.5 7.5
      vertex 2.5 16.2775 0
      vertex 2.5 16.2775 7.5
    endloop
  endfacet
  facet normal 1 0 0
    outer loop
      vertex 2.5 16.2775 0
      vertex 2.5 2.5 7.5
      vertex 2.5 2.5 0
    endloop
  endfacet
  facet normal 0 0 -1
    outer loop
      vertex 3.05 15.7275 7.5
      vertex 16.2775 16.2775 7.5
      vertex 15.7275 15.7275 7.5
    endloop
  endfacet
  facet normal -0 0 -1
    outer loop
      vertex 16.2775 16.2775 7.5
      vertex 3.05 15.7275 7.5
      vertex 2.5 16.2775 7.5
    endloop
  endfacet
  facet normal 0 -1 0
    outer loop
      vertex 3.27 15.5075 8.5
      vertex 15.5075 15.5075 9
      vertex 3.27 15.5075 9
    endloop
  endfacet
  facet normal 0 -1 -0
    outer loop
      vertex 15.5075 15.5075 9
      vertex 3.27 15.5075 8.5
      vertex 15.5075 15.5075 8.5
    endloop
  endfacet
  facet normal 0 0 1
    outer loop
      vertex 2.7651 16.0124 9
      vertex 2.7651 15.5075 9
      vertex 3.27 15.5075 9
    endloop
  endfacet
  facet normal 0 0 1
    outer loop
      vertex 16.0124 16.0124 9
      vertex 15.5075 15.5075 9
      vertex 16.0124 15.5075 9
    endloop
  endfacet
  facet normal -0 0 1
    outer loop
      vertex 3.27 16.0124 9
      vertex 15.5075 15.5075 9
      vertex 15.5075 16.0124 9
    endloop
  endfacet
  facet normal 0 0 1
    outer loop
      vertex 15.5075 15.5075 9
      vertex 3.27 16.0124 9
      vertex 3.27 15.5075 9
    endloop
  endfacet
  facet normal 0 -1 0
    outer loop
      vertex 3.27 16.0124 9
      vertex 2.7651 16.0124 10
      vertex 2.7651 16.0124 9
    endloop
  endfacet
  facet normal 0 -1 0
    outer loop
      vertex 2.7651 16.0124 10
      vertex 3.27 16.0124 9
      vertex 16.0124 16.0124 10
    endloop
  endfacet
  facet normal 0 -1 0
    outer loop
      vertex 15.5075 16.0124 9
      vertex 16.0124 16.0124 10
      vertex 3.27 16.0124 9
    endloop
  endfacet
  facet normal 0 -1 -0
    outer loop
      vertex 16.0124 16.0124 10
      vertex 15.5075 16.0124 9
      vertex 16.0124 16.0124 9
    endloop
  endfacet
  facet normal 0 0 -1
    outer loop
      vertex 2.7651 2.7651 10
      vertex 16.0124 16.0124 10
      vertex 16.0124 2.7651 10
    endloop
  endfacet
  facet normal -0 0 -1
    outer loop
      vertex 16.0124 16.0124 10
      vertex 2.7651 2.7651 10
      vertex 2.7651 16.0124 10
    endloop
  endfacet
  facet normal -1 0 0
    outer loop
      vertex 16.2775 16.2775 0
      vertex 16.2775 2.5 7.5
      vertex 16.2775 16.2775 7.5
    endloop
  endfacet
  facet normal -1 0 0
    outer loop
      vertex 16.2775 2.5 0
      vertex 16.2775 2.5 7.5
      vertex 16.2775 16.2775 0
    endloop
  endfacet
  facet normal 0 -1 -0
    outer loop
      vertex 2.5 16.2775 7.5
      vertex 2.5 16.2775 0
      vertex 16.2775 16.2775 7.5
    endloop
  endfacet
  facet normal 0 -1 -0
    outer loop
      vertex 16.2775 16.2775 7.5
      vertex 2.5 16.2775 0
      vertex 16.2775 16.2775 0
    endloop
  endfacet
  facet normal 0 0 -1
    outer loop
      vertex 18.7775 0 0
      vertex 16.2775 2.5 0
      vertex 18.7775 18.7775 0
    endloop
  endfacet
  facet normal 0 0 -1
    outer loop
      vertex 18.7775 0 0
      vertex 2.5 2.5 0
      vertex 16.2775 2.5 0
    endloop
  endfacet
  facet normal -0 0 -1
    outer loop
      vertex 2.5 2.5 0
      vertex 0 0 0
      vertex 2.5 16.2775 0
    endloop
  endfacet
  facet normal 0 0 -1
    outer loop
      vertex 0 0 0
      vertex 2.5 2.5 0
      vertex 18.7775 0 0
    endloop
  endfacet
  facet normal 0 0 -1
    outer loop
      vertex 16.2775 16.2775 0
      vertex 18.7775 18.7775 0
      vertex 16.2775 2.5 0
    endloop
  endfacet
  facet normal 0 0 -1
    outer loop
      vertex 2.5 16.2775 0
      vertex 18.7775 18.7775 0
      vertex 16.2775 16.2775 0
    endloop
  endfacet
  facet normal 0 0 -1
    outer loop
      vertex 2.5 16.2775 0
      vertex 0 18.7775 0
      vertex 18.7775 18.7775 0
    endloop
  endfacet
  facet normal 0 0 -1
    outer loop
      vertex 0 18.7775 0
      vertex 2.5 16.2775 0
      vertex 0 0 0
    endloop
  endfacet
  facet normal 0 1 -0
    outer loop
      vertex 16.2775 2.5 0
      vertex 2.5 2.5 7.5
      vertex 16.2775 2.5 7.5
    endloop
  endfacet
  facet normal 0 1 0
    outer loop
      vertex 2.5 2.5 7.5
      vertex 16.2775 2.5 0
      vertex 2.5 2.5 0
    endloop
  endfacet
  facet normal -1 0 0
    outer loop
      vertex 0 0 0
      vertex 0 18.7775 11
      vertex 0 18.7775 0
    endloop
  endfacet
  facet normal -1 -0 0
    outer loop
      vertex 0 18.7775 11
      vertex 0 0 0
      vertex 0 0 11
    endloop
  endfacet
  facet normal -0 0 1
    outer loop
      vertex 0 18.7775 11
      vertex 18.7775 0 11
      vertex 18.7775 18.7775 11
    endloop
  endfacet
  facet normal 0 0 1
    outer loop
      vertex 18.7775 0 11
      vertex 0 18.7775 11
      vertex 0 0 11
    endloop
  endfacet
  facet normal 1 -0 0
    outer loop
      vertex 18.7775 0 11
      vertex 18.7775 18.7775 0
      vertex 18.7775 18.7775 11
    endloop
  endfacet
  facet normal 1 0 0
    outer loop
      vertex 18.7775 18.7775 0
      vertex 18.7775 0 11
      vertex 18.7775 0 0
    endloop
  endfacet
  facet normal 0 1 -0
    outer loop
      vertex 18.7775 18.7775 0
      vertex 0 18.7775 11
      vertex 18.7775 18.7775 11
    endloop
  endfacet
  facet normal 0 1 0
    outer loop
      vertex 0 18.7775 11
      vertex 18.7775 18.7775 0
      vertex 0 18.7775 0
    endloop
  endfacet
  facet normal 0 -1 0
    outer loop
      vertex 0 0 0
      vertex 18.7775 0 11
      vertex 0 0 11
    endloop
  endfacet
  facet normal 0 -1 -0
    outer loop
      vertex 18.7775 0 11
      vertex 0 0 0
      vertex 18.7775 0 0
    endloop
  endfacet
endsolid OpenSCAD_Model
